<svg xmlns="http://www.w3.org/2000/svg" width="45" height="45" viewBox="0 0 45 45"><path d="M38.563,21.875H2.938a.938.938,0,0,1,0-1.875H38.563a.938.938,0,0,1,0,1.875Z" transform="translate(1.75 17.5)"/><path d="M38.563,10.875H2.938A.938.938,0,0,1,2.938,9H38.563a.938.938,0,0,1,0,1.875Z" transform="translate(1.75 7.875)"/><path d="M26.063,28H12.938A.938.938,0,0,1,12,27.063V13.938A.938.938,0,0,1,12.938,13H26.063a.938.938,0,0,1,.938.938V27.063A.938.938,0,0,1,26.063,28ZM13.875,26.125h11.25V14.875H13.875Z" transform="translate(10.5 11.375)"/><path d="M16.438,20.5a.938.938,0,0,1-.937-.937V13.938a.938.938,0,0,1,1.875,0v5.625A.938.938,0,0,1,16.438,20.5Z" transform="translate(13.563 11.375)"/><path d="M19.063,17H5.938A.938.938,0,0,1,5,16.063V2.938A.938.938,0,0,1,5.938,2H19.063A.938.938,0,0,1,20,2.938V16.063A.938.938,0,0,1,19.063,17ZM6.875,15.125h11.25V3.875H6.875Z" transform="translate(4.375 1.75)"/><path d="M9.438,9.5A.938.938,0,0,1,8.5,8.563V2.938a.938.938,0,0,1,1.875,0V8.563A.938.938,0,0,1,9.438,9.5Z" transform="translate(7.438 1.75)"/><path d="M16.188,27.125H4.938A.938.938,0,0,1,4,26.188V14.938A.938.938,0,0,1,4.938,14h11.25a.938.938,0,0,1,.938.938v11.25A.938.938,0,0,1,16.188,27.125ZM5.875,25.25H15.25V15.875H5.875Z" transform="translate(3.5 12.25)"/><path d="M7.938,19.625A.938.938,0,0,1,7,18.688v-3.75a.938.938,0,0,1,1.875,0v3.75A.938.938,0,0,1,7.938,19.625Z" transform="translate(6.125 12.25)"/><path d="M4.688,45H.938A.938.938,0,0,1,0,44.063V.938A.938.938,0,0,1,.938,0h3.75a.938.938,0,0,1,.938.938V44.063A.938.938,0,0,1,4.688,45ZM1.875,43.125H3.75V1.875H1.875Z"/><path d="M25.688,45h-3.75A.938.938,0,0,1,21,44.063V.938A.938.938,0,0,1,21.938,0h3.75a.938.938,0,0,1,.938.938V44.063A.938.938,0,0,1,25.688,45Zm-2.812-1.875H24.75V1.875H22.875Z" transform="translate(18.375)"/></svg>