<svg xmlns="http://www.w3.org/2000/svg" width="45" height="45" viewBox="0 0 45 45"><g transform="translate(16.699 10.919)"><path d="M198.046,124.23H190v23.163h2.637V140.05h5.409a7.784,7.784,0,0,0,7.775-7.775V132A7.784,7.784,0,0,0,198.046,124.23Zm5.138,8.046a5.144,5.144,0,0,1-5.138,5.138h-5.409V126.867h5.409A5.144,5.144,0,0,1,203.185,132Z" transform="translate(-190.001 -124.23)"/></g><path d="M38.41,6.59A22.5,22.5,0,1,0,6.59,38.41,22.5,22.5,0,0,0,38.41,6.59ZM36.546,36.546A19.863,19.863,0,0,1,8.455,8.454,19.863,19.863,0,0,1,36.546,36.546Z"/></svg>