<svg xmlns="http://www.w3.org/2000/svg" width="45" height="45" viewBox="0 0 45 45"><g transform="translate(0 0)"><g transform="translate(0 0.001)"><path d="M45,22.5a3.025,3.025,0,0,0-1.52-2.61l-2.506-1.474,2.508-1.49a3,3,0,0,0,0-5.217C40.35,9.845,29.729,3.534,24.493.533a4,4,0,0,0-4,.006S6.258,8.9,1.52,11.707a3,3,0,0,0,0,5.219l2.507,1.49L1.52,19.889a3,3,0,0,0,0,5.219L4.025,26.6,1.52,28.072a3,3,0,0,0,0,5.219c4.053,2.41,14.015,8.324,18.988,11.176a3.986,3.986,0,0,0,3.989,0c4.972-2.851,14.933-8.765,18.986-11.176a3,3,0,0,0,0-5.218L40.974,26.6l2.508-1.49A3.031,3.031,0,0,0,45,22.5ZM2.565,15.171a1.012,1.012,0,0,1-.519-.852,1,1,0,0,1,.517-.85c4.732-2.8,18.95-11.153,18.948-11.152a1.942,1.942,0,0,1,1.966-.007C28.7,5.3,39.309,11.607,42.435,13.467a.958.958,0,0,1,0,1.7c-4.047,2.407-14,8.315-18.956,11.157a1.95,1.95,0,0,1-1.956,0C16.561,23.484,6.612,17.577,2.565,15.171ZM42.437,29.832a.957.957,0,0,1,0,1.7c-4.047,2.407-14,8.315-18.956,11.157a1.95,1.95,0,0,1-1.956,0C16.561,39.848,6.612,33.94,2.565,31.534a1.012,1.012,0,0,1-.519-.852,1,1,0,0,1,.517-.85L6.034,27.79c4.691,2.781,10.88,6.434,14.473,8.494a3.987,3.987,0,0,0,3.989,0c3.592-2.059,9.78-5.712,14.471-8.493Zm0-6.481c-4.047,2.407-14,8.315-18.956,11.157a1.95,1.95,0,0,1-1.956,0C16.561,31.666,6.612,25.759,2.565,23.353a1.012,1.012,0,0,1-.519-.852,1,1,0,0,1,.517-.85l3.471-2.042c4.691,2.781,10.88,6.434,14.473,8.494a3.987,3.987,0,0,0,3.989,0c3.592-2.059,9.78-5.712,14.471-8.493l3.471,2.042a.957.957,0,0,1,0,1.7Z" transform="translate(0 -0.001)"/></g></g></svg>