<svg xmlns="http://www.w3.org/2000/svg" width="45" height="45" viewBox="0 0 45 45"><path d="M38.41,6.59A22.5,22.5,0,1,0,6.59,38.41,22.5,22.5,0,0,0,38.41,6.59ZM24.856,30A14.663,14.663,0,0,1,18.3,33.442a7.371,7.371,0,0,1-6.452-1.595,3.981,3.981,0,0,1-.434-5.305,8.567,8.567,0,0,1,2.6-1.634c.473-.227.962-.462,1.439-.731a12.145,12.145,0,0,0,3.052-2.451l9.3,5.365A25.685,25.685,0,0,1,24.856,30ZM20.074,19.572a12.415,12.415,0,0,0,1.468-4.029,24.645,24.645,0,0,1,1.088-4.1c.8-2.045,2.252-2.619,4.184-2.619.366,0,.75.021,1.15.056a5.493,5.493,0,0,1,4.588,3.975,8.83,8.83,0,0,1,.1,4.726,20.334,20.334,0,0,1-3.206,7.4ZM33.857,9.607a7.642,7.642,0,0,0-4.026-3.042l.425-2.339A19.923,19.923,0,0,1,36.4,8.337ZM32.988,24.24l3.784.67.461-2.607-3.086-.546a21.666,21.666,0,0,0,.939-2.958l3.167.308.256-2.635-2.992-.291a10.038,10.038,0,0,0-.472-4.211l3.17-1.585a19.815,19.815,0,0,1,2.1,20.865L31.739,26.3q.679-1.01,1.249-2.062ZM22.5,2.647a19.806,19.806,0,0,1,5.225.7L27.21,6.182a8.873,8.873,0,0,0-3.371.483,6.2,6.2,0,0,0-.808.376L20.789,4.8,18.917,6.671l2.141,2.141a7.638,7.638,0,0,0-.892,1.661,19.553,19.553,0,0,0-.621,1.92l-3.171-1.269-.983,2.458,3.558,1.423-.015.085a9.747,9.747,0,0,1-1.152,3.16L6.009,11.458A19.849,19.849,0,0,1,22.5,2.647ZM4.683,13.749l11.468,6.616a9.407,9.407,0,0,1-1.99,1.5c-.3.171-.623.33-.956.492L10.642,19.8,8.77,21.671l1.992,1.992A7.041,7.041,0,0,0,9.47,24.745a5.622,5.622,0,0,0-.755,1.032l-2.694-.6-.574,2.584,2.51.558a6.73,6.73,0,0,0,.006,1.032,7.088,7.088,0,0,0,.724,2.567L6.126,33.714A19.816,19.816,0,0,1,4.683,13.749ZM22.5,42.353A19.807,19.807,0,0,1,7.769,35.795L10.3,34.023a9.269,9.269,0,0,0,5.152,2.161v3.08H18.1V36.154c.234-.03.467-.067.7-.112a13.637,13.637,0,0,0,2.719-.832l1.4,3.237L25.347,37.4l-1.473-3.414a23.358,23.358,0,0,0,2.682-1.957c.094-.079.187-.159.28-.239l2.288,2.545,1.968-1.77-2.33-2.591q.723-.748,1.378-1.537l8.851,5.106A19.849,19.849,0,0,1,22.5,42.353Z" transform="translate(0)"/><path d="M180,315h2.647v2.647H180Z" transform="translate(-164.118 -287.206)"/><path d="M295,150h2.647v2.647H295Z" transform="translate(-268.971 -136.765)"/></svg>