<svg xmlns="http://www.w3.org/2000/svg" width="44.022" height="45" viewBox="0 0 44.022 45"><g transform="translate(-5.567)"><g transform="translate(17.306 0)"><path d="M169.946,0H140.6a1.467,1.467,0,0,0-1.467,1.467V31.794a1.467,1.467,0,0,0,1.467,1.467h29.348a1.467,1.467,0,0,0,1.467-1.467V1.468A1.467,1.467,0,0,0,169.946,0ZM168.479,11.74h-4.4a1.467,1.467,0,1,0,0,2.935h4.4V30.327H149.892v-4.4a1.467,1.467,0,1,0-2.935,0v4.4h-4.891V2.936h4.891V19.077a1.467,1.467,0,1,0,2.935,0v-4.4h7.337a1.467,1.467,0,1,0,0-2.935h-7.337v-8.8h18.587v8.8Z" transform="translate(-139.131 -0.001)"/></g><g transform="translate(11.437 36.195)"><path d="M110.082,415.19l-2.934-2.935a1.467,1.467,0,0,0-2.075,2.075l.43.43H77.37l.43-.43a1.467,1.467,0,1,0-2.075-2.075l-2.934,2.935a1.47,1.47,0,0,0,0,2.076l2.934,2.935a1.467,1.467,0,0,0,2.075-2.075l-.43-.43H105.5l-.43.43a1.467,1.467,0,0,0,2.075,2.075l2.934-2.935A1.471,1.471,0,0,0,110.082,415.19Z" transform="translate(-72.362 -411.826)"/></g><g transform="translate(5.567)"><g transform="translate(0)"><path d="M11.866,30.756l-.43.43V5.01l.43.43a1.467,1.467,0,0,0,2.075-2.075L11.006.43a1.467,1.467,0,0,0-2.075,0L6,3.365A1.467,1.467,0,0,0,8.072,5.44l.43-.43V31.185l-.43-.43A1.467,1.467,0,0,0,6,32.831l2.935,2.935a1.467,1.467,0,0,0,2.075,0l2.935-2.935a1.467,1.467,0,1,0-2.075-2.075Z" transform="translate(-5.567)"/></g></g></g></svg>