<svg id="_002-parking" data-name="002-parking" xmlns="http://www.w3.org/2000/svg" width="45" height="45" viewBox="0 0 45 45">
  <g id="Group_17" data-name="Group 17" transform="translate(16.699 10.919)">
    <g id="Group_16" data-name="Group 16">
      <path id="Path_62" data-name="Path 62" d="M198.046,124.23H190v23.163h2.637V140.05h5.409a7.784,7.784,0,0,0,7.775-7.775V132A7.784,7.784,0,0,0,198.046,124.23Zm5.138,8.046a5.144,5.144,0,0,1-5.138,5.138h-5.409V126.867h5.409A5.144,5.144,0,0,1,203.185,132Z" transform="translate(-190.001 -124.23)"/>
    </g>
  </g>
  <g id="Group_19" data-name="Group 19">
    <g id="Group_18" data-name="Group 18">
      <path id="Path_63" data-name="Path 63" d="M38.41,6.59A22.5,22.5,0,1,0,6.59,38.41,22.5,22.5,0,0,0,38.41,6.59ZM36.546,36.546A19.863,19.863,0,0,1,8.455,8.454,19.863,19.863,0,0,1,36.546,36.546Z"/>
    </g>
  </g>
</svg>
