<svg xmlns="http://www.w3.org/2000/svg" width="45" height="45" viewBox="0 0 45 45">
  <g id="_005-weather" data-name="005-weather" transform="translate(0 -0.001)">
    <path id="Path_43" data-name="Path 43" d="M140.365,21.183h-2.049l1-1.74a1.318,1.318,0,0,0-2.283-1.318l-1.766,3.058H122.366l9.125-9.125,3.411.914a1.318,1.318,0,1,0,.683-2.547l-1.94-.52,1.325-1.325A1.318,1.318,0,1,0,133.1,6.715L131.78,8.04l-.52-1.94a1.318,1.318,0,1,0-2.547.683l.914,3.411L120.5,19.318V6.413l3.058-1.766a1.318,1.318,0,0,0-1.318-2.283l-1.74,1V1.319a1.318,1.318,0,0,0-2.637,0V9.383a13.184,13.184,0,0,0,0,26.236v8.064a1.318,1.318,0,0,0,2.637,0V41.633l1.74,1a1.318,1.318,0,0,0,1.318-2.283L120.5,38.589V25.684l9.125,9.125-.914,3.411a1.318,1.318,0,1,0,2.547.682l.52-1.94,1.325,1.325a1.318,1.318,0,0,0,1.864-1.864L133.644,35.1l1.941-.52a1.318,1.318,0,1,0-.683-2.547l-3.411.914-9.125-9.125h12.905l1.766,3.058a1.318,1.318,0,0,0,2.283-1.318l-1-1.74h2.049a1.318,1.318,0,1,0,0-2.637ZM108.637,22.5a10.562,10.562,0,0,1,9.229-10.465V32.966A10.562,10.562,0,0,1,108.637,22.5Z" transform="translate(-96.684)"/>
    <path id="Path_44" data-name="Path 44" d="M6.86,242.318A1.318,1.318,0,0,0,5.542,241H1.318a1.318,1.318,0,0,0,0,2.637H5.542A1.318,1.318,0,0,0,6.86,242.318Z" transform="translate(0 -219.817)"/>
    <path id="Path_45" data-name="Path 45" d="M73.96,75.824a1.318,1.318,0,0,0,1.864-1.864l-2.986-2.987a1.318,1.318,0,0,0-1.864,1.864Z" transform="translate(-64.384 -64.382)"/>
    <path id="Path_46" data-name="Path 46" d="M73.96,377.82l-2.986,2.986a1.318,1.318,0,1,0,1.864,1.864l2.986-2.986a1.318,1.318,0,1,0-1.864-1.864Z" transform="translate(-64.384 -344.26)"/>
    <path id="Path_47" data-name="Path 47" d="M152.353,23.289A1.318,1.318,0,0,0,154.8,22.3l-1.583-3.916a1.318,1.318,0,1,0-2.444.988Z" transform="translate(-137.43 -16.016)"/>
    <path id="Path_48" data-name="Path 48" d="M24.019,314.133A1.318,1.318,0,0,0,22.3,313.4l-3.916,1.583a1.318,1.318,0,1,0,.988,2.444l3.916-1.583a1.318,1.318,0,0,0,.728-1.716Z" transform="translate(-16.019 -285.77)"/>
    <path id="Path_49" data-name="Path 49" d="M153.027,419.63a1.318,1.318,0,0,0-1.72.72l-1.6,3.908a1.318,1.318,0,1,0,2.44,1l1.6-3.908A1.318,1.318,0,0,0,153.027,419.63Z" transform="translate(-136.457 -382.657)"/>
    <path id="Path_50" data-name="Path 50" d="M18.816,152.146l3.908,1.6a1.318,1.318,0,1,0,1-2.44l-3.908-1.6a1.318,1.318,0,0,0-1,2.44Z" transform="translate(-16.415 -136.458)"/>
  </g>
</svg>
