<svg xmlns="http://www.w3.org/2000/svg" width="35.735" height="45" viewBox="0 0 35.735 45">
  <path id="_006-leaves" data-name="006-leaves" d="M82.588.486A1.408,1.408,0,0,0,81.24.029,23.205,23.205,0,0,0,70.522,5.418,23.221,23.221,0,0,0,59.8.029a1.408,1.408,0,0,0-1.348.457A23.846,23.846,0,0,0,56.3,28.753a11.543,11.543,0,0,0,12.054,5.391A49.652,49.652,0,0,1,68.5,43.48a1.408,1.408,0,1,0,2.806.225,52.483,52.483,0,0,0-.16-9.936,11.614,11.614,0,0,0,13.594-5.016A23.846,23.846,0,0,0,82.588.486Zm-23.9,26.769A21.03,21.03,0,0,1,60.048,2.972a20.656,20.656,0,0,1,15.5,18.5,8.96,8.96,0,0,1-4.871,8.938A61.846,61.846,0,0,0,67.522,19l1.6-4.539a1.408,1.408,0,1,0-2.654-.938L65.916,15.1Q64.7,12.364,63.223,9.622a1.408,1.408,0,1,0-2.478,1.335A71.672,71.672,0,0,1,66.2,23.832L63.246,22.81a1.408,1.408,0,1,0-.919,2.661l4.787,1.653c.346,1.413.63,2.8.863,4.228a8.744,8.744,0,0,1-9.291-4.1Zm23.672,0a8.707,8.707,0,0,1-8.25,4.237A11.763,11.763,0,0,0,78.351,21.25a23.8,23.8,0,0,0-5.84-13.834A20.429,20.429,0,0,1,81,2.972,21.032,21.032,0,0,1,82.357,27.254Z" transform="translate(-52.654)"/>
</svg>
