<svg xmlns="http://www.w3.org/2000/svg" width="45" height="41.396" viewBox="0 0 45 41.396">
  <g id="_007-team" data-name="007-team" transform="translate(0 -20.499)">
    <g id="Group_9" data-name="Group 9" transform="translate(17.59 20.499)">
      <g id="Group_8" data-name="Group 8" transform="translate(0 0)">
        <path id="Path_58" data-name="Path 58" d="M201.633,20.757a.881.881,0,1,0,.257.621A.888.888,0,0,0,201.633,20.757Z" transform="translate(-200.132 -20.499)"/>
      </g>
    </g>
    <g id="Group_11" data-name="Group 11" transform="translate(14.616 20.499)">
      <g id="Group_10" data-name="Group 10" transform="translate(0 0)">
        <path id="Path_59" data-name="Path 59" d="M182.7,35.118l-.728-3.693a7.665,7.665,0,0,0-2.116-3.959l-1.245-1.242V21.378a.879.879,0,1,0-1.758,0v5.211a.879.879,0,0,0,.258.622l1.5,1.5a5.915,5.915,0,0,1,1.632,3.054l.728,3.693a.542.542,0,0,1-1.059.234l-.376-1.535a1.084,1.084,0,0,0-2.136.258v7.149a.511.511,0,0,1-1.018.067V37.9a.879.879,0,0,0-.879-.879h0a.879.879,0,0,0-.879.879v3.666c0,.048,0,.1,0,.142v1.171a.512.512,0,1,1-1.023,0V41.706c0-.047,0-.094,0-.142V37.9a.879.879,0,0,0-.879-.879h0a.879.879,0,0,0-.879.879v3.733a.511.511,0,0,1-1.019-.067V40.253c0-.047,0-.094,0-.142V37.9a.879.879,0,0,0-.879-.879h0a.879.879,0,0,0-.879.879v2.28a.511.511,0,0,1-1.019-.067V32.383a5.9,5.9,0,0,1,1.744-4.2l.972-.969a.879.879,0,0,0,.258-.622V24.512a.879.879,0,0,0-1.758,0v1.712l-.713.711a7.642,7.642,0,0,0-2.261,5.448v7.728a2.268,2.268,0,0,0,2.9,2.181,2.27,2.27,0,0,0,2.823,1.44,2.269,2.269,0,0,0,4.2,0,2.27,2.27,0,0,0,2.944-2.167V37.47a2.3,2.3,0,0,0,3.538-2.352Z" transform="translate(-166.293 -20.499)"/>
      </g>
    </g>
    <g id="Group_13" data-name="Group 13" transform="translate(0 43.724)">
      <g id="Group_12" data-name="Group 12" transform="translate(0 0)">
        <path id="Path_60" data-name="Path 60" d="M21.891,293.929a2.28,2.28,0,0,0-.39-.5,2.27,2.27,0,0,0-.164-3.164,2.27,2.27,0,0,0-2.1-3.642,2.27,2.27,0,0,0-3.349-1.465l-3.546,2.047a2.3,2.3,0,0,0-3.807-1.888L5.7,287.795a7.667,7.667,0,0,0-2.371,3.812l-.453,1.7L.44,294.712a.879.879,0,1,0,.879,1.522l2.752-1.589a.879.879,0,0,0,.41-.535l.547-2.052a5.914,5.914,0,0,1,1.829-2.941l2.834-2.477a.542.542,0,0,1,.772.06.544.544,0,0,1-.04.74l-1.141,1.093a1.084,1.084,0,0,0,1.292,1.721l6.191-3.574a.51.51,0,0,1,.553.857L14.1,289.4a.879.879,0,0,0-.322,1.2v0a.879.879,0,0,0,1.2.322l3.175-1.833c.041-.024.081-.049.121-.075l1.014-.585a.512.512,0,1,1,.512.886l-1.015.586c-.042.021-.084.043-.125.067L15.487,291.8a.879.879,0,0,0-.322,1.2.9.9,0,0,0,.118.159.875.875,0,0,0,1.085.167l3.233-1.866a.511.511,0,0,1,.451.916l-1.135.655c-.042.021-.084.043-.126.067L16.875,294.2a.879.879,0,0,0-.322,1.2.894.894,0,0,0,.764.444.875.875,0,0,0,.439-.118l1.975-1.14a.511.511,0,0,1,.638.217.512.512,0,0,1-.187.7l-2.817,1.626-3.876,2.238a5.9,5.9,0,0,1-4.512.591L7.652,299.6a.878.878,0,0,0-.668.088l-2.752,1.589a.879.879,0,1,0,.879,1.522L7.547,301.4l.973.262a7.643,7.643,0,0,0,5.848-.766l2.22-1.282h0l1.656-.956.15-.087,2.666-1.539A2.272,2.272,0,0,0,21.891,293.929Z" transform="translate(0 -284.749)"/>
      </g>
    </g>
    <g id="Group_15" data-name="Group 15" transform="translate(22.759 42.455)">
      <g id="Group_14" data-name="Group 14" transform="translate(0 0)">
        <path id="Path_61" data-name="Path 61" d="M280.748,281.547l-2.436-1.406-.259-.973a7.642,7.642,0,0,0-3.587-4.682l-3.876-2.238-2.817-1.626a6.385,6.385,0,0,1-4.369,1.451,7,7,0,0,1-3.9,2.8,2.273,2.273,0,0,0,.174,2.528,2.272,2.272,0,0,0,.405,3.633l3.546,2.047a2.3,2.3,0,0,0,.268,4.241l3.562,1.216a7.666,7.666,0,0,0,4.487.147l1.7-.458,2.436,1.406a.879.879,0,1,0,.879-1.522l-2.752-1.589a.878.878,0,0,0-.668-.087l-2.05.552a5.914,5.914,0,0,1-3.461-.114l-3.562-1.216a.542.542,0,0,1-.334-.7.544.544,0,0,1,.661-.335l1.517.441a1.084,1.084,0,0,0,.845-1.979l-6.191-3.574a.512.512,0,0,1,.123-.938.507.507,0,0,1,.328.022l3.233,1.867a.875.875,0,0,0,1.085-.167.894.894,0,0,0,.118-.159.879.879,0,0,0-.322-1.2l-3.175-1.833c-.042-.024-.084-.046-.126-.067l-1.014-.585a.512.512,0,1,1,.512-.886l1.014.585c.039.026.08.052.121.076l3.175,1.833a.875.875,0,0,0,1.085-.167.9.9,0,0,0,.118-.159.879.879,0,0,0-.322-1.2l-3.218-1.858a.51.51,0,0,1,.553-.857l1.135.656c.039.026.079.051.121.075l1.916,1.106a.875.875,0,0,0,1.085-.167.91.91,0,0,0,.118-.159.879.879,0,0,0-.322-1.2l-1.974-1.14a.511.511,0,0,1,.567-.849l2.666,1.539.15.087,1.656.956h0l2.22,1.282a5.9,5.9,0,0,1,2.767,3.612l.353,1.326a.879.879,0,0,0,.41.535l2.752,1.589a.879.879,0,1,0,.879-1.522Z" transform="translate(-258.947 -270.316)"/>
      </g>
    </g>
  </g>
</svg>
