<svg xmlns="http://www.w3.org/2000/svg" width="19.311" height="25" viewBox="0 0 19.311 25">
  <g id="Layer_2" data-name="Layer 2" transform="translate(-3.646 -1.042)">
    <g id="icons_Q2" data-name="icons Q2" transform="translate(3.646 1.042)">
      <path id="Path_77" data-name="Path 77" d="M20.976,12.272a1.7,1.7,0,1,1-1.7,1.7,1.647,1.647,0,0,1,1.7-1.7m0-2.272a3.976,3.976,0,1,0,3.976,3.976A3.976,3.976,0,0,0,20.976,10Z" transform="translate(-11.32 -5.456)"/>
      <path id="Path_78" data-name="Path 78" d="M16.656,4.272c4.2,0,7.384,3.408,7.384,7.952s-4.885,9.485-7.384,12.041c-2.5-2.556-7.384-7.781-7.384-12.041s3.181-7.952,7.384-7.952m0-2.272C11.033,2,7,6.6,7,12.224s6.532,12.1,8.861,14.427a1.079,1.079,0,0,0,1.59,0c2.329-2.329,8.861-8.69,8.861-14.427S22.279,2,16.656,2Z" transform="translate(-7 -2)"/>
    </g>
  </g>
</svg>
