<svg xmlns="http://www.w3.org/2000/svg" width="45" height="42" viewBox="0 0 45 42">
  <path id="balkon" d="M60.25,69.5h-6V56h4.5v2.25a.75.75,0,0,0,1.5,0v-3a.75.75,0,0,0-.75-.75H49.75v-18h1.5a.75.75,0,0,0,.75-.75v-3a.75.75,0,0,0-.75-.75H25.75a.75.75,0,0,0-.75.75v3a.75.75,0,0,0,.75.75h1.5v18H24.494l1.227-4.294A.75.75,0,0,0,25,49.25H22.311l2.095-2.095a.75.75,0,0,0-1.061-1.061l-.97.97L20.28,44.97A.75.75,0,1,0,19.22,46.03l2.095,2.095L20.189,49.25H18.25a.75.75,0,0,0-.721.956L18.756,54.5H17.5a.75.75,0,0,0-.75.75v3a.75.75,0,0,0,1.5,0V56h4.5V69.5h-6a.75.75,0,0,0-.75.75v3a.75.75,0,0,0,.75.75h43.5a.75.75,0,0,0,.75-.75v-3A.75.75,0,0,0,60.25,69.5ZM52.75,56V69.5h-4.5V56Zm-13.5-1.5V46.25h9V54.5Zm7.5,1.5V69.5h-4.5V56Zm-18-1.5V46.25h9V54.5Zm6,1.5V69.5h-4.5V56Zm-6-11.25V36.5h9v8.25ZM36.25,56h4.5V69.5h-4.5Zm3-11.25V36.5h9v8.25ZM26.5,35V33.5h24V35ZM24.25,56h4.5V69.5h-4.5Zm-3.934-1.5-1.071-3.75h4.761L22.934,54.5ZM59.5,72.5h-42V71h42Z" transform="translate(-16 -32)"/>
</svg>
