<svg xmlns="http://www.w3.org/2000/svg" width="13.948" height="13.919" viewBox="0 0 13.948 13.919"><g transform="translate(-1 -18.08)"><g transform="translate(-8.959 8.079)"><path d="M27.548,16.961l-5.27,5.27a.945.945,0,0,0,.1,1.491,1.044,1.044,0,0,0,1.342-.1l5.916-5.966a.945.945,0,0,0,0-1.392L23.72,10.3a1.044,1.044,0,0,0-1.342-.1.945.945,0,0,0-.1,1.491Z" transform="translate(-6.034)"/><path d="M15.548,16.961l-5.27,5.27a.945.945,0,0,0,.1,1.491,1.044,1.044,0,0,0,1.342-.1l5.916-5.966a.945.945,0,0,0,0-1.392L11.72,10.3a1.044,1.044,0,0,0-1.342-.1.945.945,0,0,0-.1,1.491Z"/></g></g></svg>