<svg id="logo_2" xmlns="http://www.w3.org/2000/svg" width="109" height="20.467" viewBox="0 0 109 20.467">
  <g id="Layer_1-2">
    <path id="Path_14" data-name="Path 14" d="M140.4,50.3V42.4h4.593v.214h-4.358V46.1h4.1v.214h-4.1v3.781h4.551V50.3Z" transform="translate(-110.405 -33.342)" fill="#d8cfbc" stroke="#d8cfbc" stroke-width="0.5"/>
    <path id="Path_15" data-name="Path 15" d="M173.812,50.54c-2.243,0-3.012-1.431-3.012-3.226V42.4h.235v4.871c0,1.239.363,3.034,2.777,3.034,2.35,0,2.777-1.752,2.777-3.034V42.4h.235v4.914c0,1.773-.79,3.2-3.012,3.226" transform="translate(-134.31 -33.342)" fill="#d8cfbc" stroke="#d8cfbc" stroke-width="0.5"/>
    <path id="Path_16" data-name="Path 16" d="M214.086,50.3l-2.393-4h-1.859v4H209.6V42.4h2.2c1.175,0,2.478.363,2.478,1.965,0,1.474-1.26,1.944-2.307,1.966l2.414,4h-.3Zm-2.436-7.691h-1.816v3.5h1.944c1.453,0,2.243-.641,2.243-1.752,0-1.41-1.154-1.752-2.371-1.752" transform="translate(-164.821 -33.342)" fill="#d8cfbc" stroke="#d8cfbc" stroke-width="0.5"/>
    <path id="Path_17" data-name="Path 17" d="M242.881,49.675a4.189,4.189,0,1,1,4.081-4.187,4.015,4.015,0,0,1-4.081,4.187m.021-8.14a3.955,3.955,0,1,0,3.824,3.952,3.8,3.8,0,0,0-3.824-3.952" transform="translate(-187.782 -32.477)" fill="#d8cfbc" stroke="#d8cfbc" stroke-width="0.5"/>
    <path id="Path_18" data-name="Path 18" d="M283.414,43.618H281V42.4h6.26v1.218h-2.436V50.3h-1.41Z" transform="translate(-220.967 -33.342)" fill="#d8cfbc"/>
    <path id="Path_19" data-name="Path 19" d="M314.5,42.4h5.256v1.218H315.91v2.008h3.632v1.2H315.91v2.243h4.038V50.3H314.5Z" transform="translate(-247.31 -33.342)" fill="#d8cfbc"/>
    <path id="Path_20" data-name="Path 20" d="M346.421,42.4h2.756c1.5,0,2.927.6,2.927,2.265a2.119,2.119,0,0,1-1.816,2.136l2.115,3.5h-1.709l-1.837-3.354H347.81V50.3H346.4Zm2.564,3.418c.79,0,1.709-.192,1.709-1.154,0-.855-.855-1.068-1.581-1.068h-1.282v2.222Z" transform="translate(-272.395 -33.342)" fill="#d8cfbc"/>
    <path id="Path_21" data-name="Path 21" d="M379.4,42.4h2.756c1.5,0,2.927.6,2.927,2.265a2.118,2.118,0,0,1-1.816,2.136l2.115,3.5h-1.709l-1.837-3.354H380.81V50.3H379.4Zm2.564,3.418c.79,0,1.709-.192,1.709-1.154,0-.855-.855-1.068-1.581-1.068H380.81v2.222Z" transform="translate(-298.344 -33.342)" fill="#d8cfbc"/>
    <path id="Path_22" data-name="Path 22" d="M411.161,42.4h1.218l3.418,7.926h-1.6l-.748-1.795h-3.44l-.726,1.816H407.7Zm1.795,4.892-1.218-3.226L410.5,47.292Z" transform="translate(-320.598 -33.342)" fill="#d8cfbc"/>
    <path id="Path_23" data-name="Path 23" d="M452.768,43.551a2.194,2.194,0,0,0-1.795-.812,2.73,2.73,0,0,0-2.735,2.906,2.658,2.658,0,0,0,2.692,2.927,2.329,2.329,0,0,0,1.923-.919l1.132.79a3.753,3.753,0,0,1-3.055,1.389,4.167,4.167,0,1,1,.064-8.332,3.734,3.734,0,0,1,2.884,1.218Z" transform="translate(-351.266 -32.634)" fill="#d8cfbc"/>
    <path id="Path_24" data-name="Path 24" d="M484.8,42.4h5.234v1.218h-3.846v2.008h3.653v1.2h-3.653v2.243h4.038V50.3H484.8Z" transform="translate(-381.226 -33.342)" fill="#d8cfbc"/>
    <path id="Path_25" data-name="Path 25" d="M0,41.148v-3.91H13.246V35.551l-8.823-.043V31.855l8.823.021V30.188H8.823V26.3h8.823V41.148Z" transform="translate(0 -20.681)" fill="#d8cfbc"/>
    <path id="Path_26" data-name="Path 26" d="M62.3,0V3.91h5.982V20.467h4.636V3.91H78.28V0Z" transform="translate(-48.99)" fill="#d8cfbc"/>
  </g>
</svg>
