<svg xmlns="http://www.w3.org/2000/svg" width="21.205" height="19.643" viewBox="0 0 21.205 19.643"><path d="M33.6,27.2A29.2,29.2,0,0,0,30,25.5c-.4-.2-.8-.3-1.1.2s-1.4,1.7-1.7,2.1a.8.8,0,0,1-1.1.1,15.2,15.2,0,0,1-4.2-2.6A15,15,0,0,1,19,21.7a.7.7,0,0,1,.2-1l.8-1a3.5,3.5,0,0,0,.5-.8.9.9,0,0,0,0-.9c-.2-.3-1.2-2.8-1.6-3.9s-.9-.9-1.2-.9h-1a1.7,1.7,0,0,0-1.4.7,5.5,5.5,0,0,0-1.8,4.3,10.4,10.4,0,0,0,2.1,5.4c.3.3,3.7,5.6,8.9,7.8a16.4,16.4,0,0,0,3,1.1,6.4,6.4,0,0,0,3.3.2c1-.1,3.1-1.2,3.5-2.4a4.1,4.1,0,0,0,.3-2.5,2.1,2.1,0,0,0-1-.6Z" transform="translate(-13.495 -13.186)"/></svg>