<svg xmlns="http://www.w3.org/2000/svg" width="43.499" height="45" viewBox="0 0 43.499 45">
  <g id="drevohlinikove_okna" transform="translate(0.418 0)">
    <path id="Path_103" data-name="Path 103" d="M451.324,45h-3a.75.75,0,0,1-.75-.75V.754a.75.75,0,0,1,.75-.75h3a.75.75,0,0,1,.75.75v43.5A.75.75,0,0,1,451.324,45Zm-2.25-1.5h1.5V1.5h-1.5Zm0,0" transform="translate(-416.493 -0.003)"/>
    <path id="Path_104" data-name="Path 104" d="M230.16,45a.747.747,0,0,1-.284-.055l-16.5-6.75a.75.75,0,0,1-.466-.694V7.5a.75.75,0,0,1,.466-.694l16.5-6.75a.75.75,0,0,1,1.034.694v43.5a.75.75,0,0,1-.75.75Zm-15.75-8,15,6.136V1.868L214.41,8Zm0,0" transform="translate(-198.328 0)"/>
    <path id="Path_105" data-name="Path 105" d="M266.824,97.188a.745.745,0,0,1-.3-.063l-10.5-4.59a.751.751,0,0,1-.45-.687V66.066a.75.75,0,0,1,.45-.687l10.5-4.59a.75.75,0,0,1,1.05.687V96.438a.75.75,0,0,1-.75.75Zm-9.75-5.831,9,3.934V62.622l-9,3.934Zm0,0" transform="translate(-237.992 -56.456)"/>
    <path id="Path_106" data-name="Path 106" d="M341.655,303.918a.741.741,0,0,1-.278-.053.75.75,0,0,1-.419-.975l1.5-3.75a.75.75,0,0,1,.7-.472h.75a.75.75,0,0,1,0,1.5h-.243l-1.311,3.278A.751.751,0,0,1,341.655,303.918Zm0,0" transform="translate(-317.323 -277.667)"/>
    <path id="Path_107" data-name="Path 107" d="M36.078,41.008a4.5,4.5,0,1,1,4.5-4.5A4.5,4.5,0,0,1,36.078,41.008Zm0-7.5a3,3,0,1,0,2.121.879A3,3,0,0,0,36.078,33.508Zm0,0" transform="translate(-29.746 -29.757)"/>
    <path id="Path_108" data-name="Path 108" d="M85.664,3.754a.75.75,0,0,1-.75-.75V.754a.75.75,0,1,1,1.5,0V3A.75.75,0,0,1,85.664,3.754Zm0,0" transform="translate(-79.332 -0.003)"/>
    <path id="Path_109" data-name="Path 109" d="M85.664,142.422a.75.75,0,0,1-.75-.75v-2.25a.75.75,0,1,1,1.5,0v2.25A.75.75,0,0,1,85.664,142.422Zm0,0" transform="translate(-79.332 -128.921)"/>
    <path id="Path_110" data-name="Path 110" d="M44.144,14.926a.751.751,0,0,1-.65-.375L42.368,12.6a.75.75,0,0,1,1.3-.75l1.125,1.95a.75.75,0,0,1-.649,1.125Zm0,0" transform="translate(-39.687 -10.673)"/>
    <path id="Path_111" data-name="Path 111" d="M113.475,135.009a.749.749,0,0,1-.65-.375l-1.125-1.95a.75.75,0,0,1,1.3-.75l1.125,1.95a.75.75,0,0,1-.649,1.125Zm0,0" transform="translate(-104.143 -122.312)"/>
    <path id="Path_112" data-name="Path 112" d="M13.739,45.33a.746.746,0,0,1-.375-.1L11.414,44.1a.75.75,0,0,1,.75-1.3l1.95,1.125a.75.75,0,0,1-.375,1.4Zm0,0" transform="translate(-10.655 -39.704)"/>
    <path id="Path_113" data-name="Path 113" d="M133.823,114.661a.749.749,0,0,1-.375-.1l-1.95-1.125a.75.75,0,0,1,.75-1.3l1.95,1.125a.75.75,0,0,1-.375,1.4Zm0,0" transform="translate(-122.296 -104.16)"/>
    <path id="Path_114" data-name="Path 114" d="M2.582,86.84H.332a.75.75,0,0,1,0-1.5h2.25a.75.75,0,0,1,0,1.5Zm0,0" transform="translate(0 -79.339)"/>
    <path id="Path_115" data-name="Path 115" d="M141.246,86.84H139a.75.75,0,0,1,0-1.5h2.25a.75.75,0,0,1,0,1.5Zm0,0" transform="translate(-128.914 -79.339)"/>
    <path id="Path_116" data-name="Path 116" d="M11.773,114.661a.75.75,0,0,1-.375-1.4l1.95-1.125a.75.75,0,0,1,.75,1.3l-1.95,1.125a.747.747,0,0,1-.375.1Zm0,0" transform="translate(-10.636 -104.16)"/>
    <path id="Path_117" data-name="Path 117" d="M131.861,45.33a.75.75,0,0,1-.375-1.4l1.95-1.125a.75.75,0,0,1,.75,1.3l-1.95,1.125a.746.746,0,0,1-.375.1Zm0,0" transform="translate(-122.281 -39.704)"/>
    <path id="Path_118" data-name="Path 118" d="M43.006,134.9a.75.75,0,0,1-.648-1.125l1.125-1.95a.75.75,0,1,1,1.3.75l-1.125,1.95A.75.75,0,0,1,43.006,134.9Zm0,0" transform="translate(-39.675 -122.202)"/>
    <path id="Path_119" data-name="Path 119" d="M112.339,14.926a.75.75,0,0,1-.649-1.125l1.125-1.95a.75.75,0,0,1,1.3.75l-1.125,1.95a.751.751,0,0,1-.65.375Zm0,0" transform="translate(-104.132 -10.673)"/>
    <path id="Path_120" data-name="Path 120" d="M199.949,126.458a.752.752,0,0,1-.53-.22l-7.5-7.5a.75.75,0,0,1,1.06-1.061l7.5,7.5a.75.75,0,0,1-.53,1.28Zm0,0" transform="translate(-178.618 -109.207)"/>
    <path id="Path_121" data-name="Path 121" d="M199.949,243.793a.749.749,0,0,1-.53-.22l-7.5-7.5a.75.75,0,0,1,1.06-1.06l7.5,7.5a.75.75,0,0,1-.53,1.28Zm0,0" transform="translate(-178.618 -218.292)"/>
    <path id="Path_122" data-name="Path 122" d="M199.949,361.125a.749.749,0,0,1-.53-.22l-7.5-7.5a.75.75,0,0,1,1.06-1.06l7.5,7.5a.75.75,0,0,1-.53,1.28Zm0,0" transform="translate(-178.618 -327.375)"/>
    <path id="Path_123" data-name="Path 123" d="M498.613,286.458a.75.75,0,0,1-.53-.22l-7.5-7.5a.75.75,0,0,1,1.06-1.06l7.5,7.5a.75.75,0,0,1-.53,1.28Zm0,0" transform="translate(-456.282 -257.957)"/>
    <path id="Path_124" data-name="Path 124" d="M498.613,403.789a.748.748,0,0,1-.53-.22l-7.5-7.5a.75.75,0,0,1,1.06-1.06l7.5,7.5a.75.75,0,0,1-.53,1.28Zm0,0" transform="translate(-456.282 -367.039)"/>
    <path id="Path_125" data-name="Path 125" d="M498.613,521.122a.749.749,0,0,1-.53-.22l-7.5-7.5a.75.75,0,0,1,1.06-1.061l7.5,7.5a.75.75,0,0,1-.53,1.28Zm0,0" transform="translate(-456.282 -476.121)"/>
  </g>
</svg>
