<svg width="30px" height="28px" viewBox="0 0 30 28" version="1.1" xmlns="http://www.w3.org/2000/svg" xmlns:xlink="http://www.w3.org/1999/xlink">
    <g id="Page-1" stroke="none" stroke-width="1" fill="none" fill-rule="evenodd">
        <g id="home-gallery-arrow-left" transform="translate(14.500000, 14.000000) rotate(180.000000) translate(-14.500000, -14.000000) translate(-1.000000, 0.000000)" fill="#FFFFFF">
            <path d="M17.5,27.399 L29.4,15.399 C29.792204,15.0391463 30.0154767,14.5312768 30.0154767,13.999 C30.0154767,13.4667232 29.792204,12.9588537 29.4,12.599 L17.5,0.599 C16.7688265,-0.116354965 15.6285936,-0.200816656 14.8,0.399 C14.3115696,0.727034456 14.0026671,1.26284227 13.9635298,1.84990199 C13.9243925,2.4369617 14.1594364,3.00903261 14.6,3.399 L23.2,11.999 L2,11.999 C0.8954305,11.999 0,12.8944305 0,13.999 C0,15.1035695 0.8954305,15.999 2,15.999 L23.2,15.999 L14.6,24.599 C14.1594364,24.9889674 13.9243925,25.5610383 13.9635298,26.148098 C14.0026671,26.7351577 14.3115696,27.2709655 14.8,27.599 C15.6285936,28.1988167 16.7688265,28.114355 17.5,27.399 Z" id="Path"></path>
        </g>
    </g>
</svg>
