<svg xmlns="http://www.w3.org/2000/svg" width="236" height="44.314" viewBox="0 0 236 44.314"><path d="M140.4,59.515V42.4h9.945v.463h-9.436V50.4h8.881v.463h-8.881v8.187h9.853v.463Z" transform="translate(-75.456 -22.787)" fill="#d8cfbc" stroke="#d8cfbc" stroke-width="0.5"/><path d="M177.322,60.024c-4.857,0-6.522-3.1-6.522-6.985V42.4h.509V52.946c0,2.683.786,6.568,6.013,6.568,5.088,0,6.013-3.793,6.013-6.568V42.4h.509V53.039c0,3.839-1.711,6.938-6.522,6.985" transform="translate(-91.794 -22.787)" fill="#d8cfbc" stroke="#d8cfbc" stroke-width="0.5"/><path d="M219.314,59.515l-5.181-8.65h-4.024v8.65H209.6V42.4h4.764c2.544,0,5.366.786,5.366,4.256,0,3.192-2.729,4.209-5,4.256l5.227,8.65h-.648Zm-5.273-16.652h-3.932v7.586h4.209c3.145,0,4.857-1.388,4.857-3.793,0-3.053-2.5-3.793-5.134-3.793" transform="translate(-112.647 -22.787)" fill="#d8cfbc" stroke="#d8cfbc" stroke-width="0.5"/><path d="M247.635,59.432a8.692,8.692,0,0,1-8.835-9.066,8.838,8.838,0,1,1,17.67,0,8.666,8.666,0,0,1-8.835,9.066m.046-17.624a8.222,8.222,0,0,0-8.28,8.557c0,4.764,3.33,8.557,8.28,8.557s8.28-3.839,8.28-8.557a8.249,8.249,0,0,0-8.28-8.557" transform="translate(-128.34 -22.196)" fill="#d8cfbc" stroke="#d8cfbc" stroke-width="0.5"/><path d="M286.227,45.037H281V42.4h13.553v2.637H289.28V59.515h-3.053Z" transform="translate(-151.02 -22.787)" fill="#d8cfbc"/><path d="M314.5,42.4h11.379v2.637h-8.326v4.348h7.864v2.59h-7.864v4.857H326.3v2.683H314.5Z" transform="translate(-169.024 -22.787)" fill="#d8cfbc"/><path d="M346.446,42.4h5.967c3.238,0,6.337,1.3,6.337,4.9a4.587,4.587,0,0,1-3.932,4.626l4.579,7.586h-3.7l-3.978-7.262h-2.267v7.262H346.4ZM352,49.8c1.711,0,3.7-.416,3.7-2.5,0-1.85-1.85-2.313-3.423-2.313H349.5V49.8Z" transform="translate(-186.168 -22.787)" fill="#d8cfbc"/><path d="M379.4,42.4h5.967c3.238,0,6.337,1.3,6.337,4.9a4.587,4.587,0,0,1-3.932,4.626l4.579,7.586h-3.7l-3.978-7.262h-2.22v7.262H379.4Zm5.551,7.4c1.711,0,3.7-.416,3.7-2.5,0-1.85-1.85-2.313-3.423-2.313h-2.775V49.8Z" transform="translate(-203.903 -22.787)" fill="#d8cfbc"/><path d="M415.194,42.4h2.637l7.4,17.161h-3.469l-1.619-3.886H412.7l-1.573,3.932H407.7Zm3.886,10.593-2.637-6.985-2.683,6.985Z" transform="translate(-219.113 -22.787)" fill="#d8cfbc"/><path d="M459.837,45.941a4.751,4.751,0,0,0-3.886-1.758c-3.515,0-5.921,2.729-5.921,6.291,0,3.747,2.267,6.337,5.828,6.337a5.043,5.043,0,0,0,4.163-1.989l2.452,1.711a8.127,8.127,0,0,1-6.615,3.007c-5.366,0-9.159-3.7-9.159-9.066,0-5.5,4.024-8.974,9.3-8.974,2.22,0,4.857.833,6.245,2.637Z" transform="translate(-240.073 -22.304)" fill="#d8cfbc"/><path d="M484.8,42.4h11.333v2.637h-8.326v4.348h7.91v2.59h-7.91v4.857h8.742v2.683H484.8Z" transform="translate(-260.549 -22.787)" fill="#d8cfbc"/><path d="M0,58.448V49.983H28.679V46.329l-19.1-.093v-7.91l19.1.046V34.719H19.1V26.3h19.1V58.448Z" transform="translate(0 -14.135)" fill="#d8cfbc"/><path d="M62.3,0V8.465H75.252V44.314H85.289V8.465H96.9V0Z" transform="translate(-33.482)" fill="#d8cfbc"/></svg>