<svg xmlns="http://www.w3.org/2000/svg" width="42.651" height="45" viewBox="0 0 42.651 45">
  <g id="podlahy" transform="translate(-13.362)">
    <g id="Group_27" data-name="Group 27" transform="translate(13.362)">
      <g id="Group_26" data-name="Group 26" transform="translate(0)">
        <path id="Path_91" data-name="Path 91" d="M55.735,25.183,43.956,13.4,50.1,7.257a.948.948,0,0,0,0-1.345L44.38.273a.948.948,0,0,0-1.336,0l-4.97,4.97L33.1.278a.948.948,0,0,0-1.341,0L19.3,12.736,13.64,18.4a.948.948,0,0,0,0,1.341L25.427,31.529,19.28,37.676a.948.948,0,0,0,0,1.341l5.705,5.705a.948.948,0,0,0,1.341,0l5.011-5.011,4.935,4.935a.948.948,0,0,0,1.341,0L50.055,32.2l5.681-5.681A.948.948,0,0,0,55.735,25.183ZM38.744,7.259h0l4.975-4.975,4.369,4.307-6.142,6.142h0l-5.011,5.011L32.6,13.406Zm3.694,18.67-4.3,4.3L33.1,25.194l-6.147-6.147,4.3-4.3,5.008,5.008ZM32.433,2.289l4.3,4.3-2.9,2.9-3.248,3.248-4.97,4.97-4.3-4.3ZM15.651,19.071l1.492-1.492,7.2,7.2a.948.948,0,1,0,1.341-1.341l-7.2-7.2,1.492-1.492,4.97,4.97h0l6.147,6.147L29.58,27.376l-2.812,2.812ZM30.667,37.7h0l-5.01,5.01-4.365-4.365L29.534,30.1l2.9-2.9,4.006,4.006.359.359-2.9,2.9Zm6.276,4.935-4.265-4.265,6.131-6.131,4.97-4.97,4.265,4.265ZM49.384,30.194l-4.935-4.935-6.174-6.174,1.446-1.446L47,24.916a.948.948,0,0,0,1.341-1.341L41.062,16.3l1.553-1.553L53.724,25.854Z" transform="translate(-13.362 0)"/>
      </g>
    </g>
    <g id="Group_29" data-name="Group 29" transform="translate(26.1 25.196)">
      <g id="Group_28" data-name="Group 28">
        <path id="Path_92" data-name="Path 92" d="M160.17,287.434a.954.954,0,0,0-.054-.177,1.014,1.014,0,0,0-.087-.164.92.92,0,0,0-.262-.262,1,1,0,0,0-.164-.087.962.962,0,0,0-.177-.054.94.94,0,0,0-.371,0,.955.955,0,0,0-.177.054,1.011,1.011,0,0,0-.164.087.92.92,0,0,0-.262.262,1,1,0,0,0-.087.164.961.961,0,0,0-.054.177.962.962,0,0,0,0,.371.953.953,0,0,0,.054.177,1.011,1.011,0,0,0,.087.164.92.92,0,0,0,.262.262,1,1,0,0,0,.164.087.959.959,0,0,0,.177.054.942.942,0,0,0,.186.018.932.932,0,0,0,.185-.018.955.955,0,0,0,.177-.054,1.009,1.009,0,0,0,.164-.087.92.92,0,0,0,.262-.262,1,1,0,0,0,.087-.164.96.96,0,0,0,.054-.177.962.962,0,0,0,0-.371Z" transform="translate(-158.293 -286.671)"/>
      </g>
    </g>
    <g id="Group_31" data-name="Group 31" transform="translate(48.755 25.33)">
      <g id="Group_30" data-name="Group 30">
        <path id="Path_93" data-name="Path 93" d="M417.929,288.966a.986.986,0,0,0-.054-.178.97.97,0,0,0-.087-.163.9.9,0,0,0-.117-.144.96.96,0,0,0-.144-.118.934.934,0,0,0-.164-.087.955.955,0,0,0-.177-.054.935.935,0,0,0-.37,0,.986.986,0,0,0-.178.054.961.961,0,0,0-.163.087.979.979,0,0,0-.144.118.942.942,0,0,0-.206.307.987.987,0,0,0-.054.178.958.958,0,0,0,0,.37.961.961,0,0,0,.141.341.97.97,0,0,0,.118.144.911.911,0,0,0,.144.118.961.961,0,0,0,.163.087.985.985,0,0,0,.178.054.909.909,0,0,0,.37,0,.955.955,0,0,0,.177-.054.945.945,0,0,0,.164-.087.909.909,0,0,0,.144-.118.955.955,0,0,0,.278-.67A.928.928,0,0,0,417.929,288.966Z" transform="translate(-416.052 -288.202)"/>
      </g>
    </g>
  </g>
</svg>
