<svg xmlns="http://www.w3.org/2000/svg" width="45" height="40.123" viewBox="0 0 45 40.123">
  <g id="rekuperacna_jednotka" transform="translate(0 -27.214)">
    <g id="Group_33" data-name="Group 33" transform="translate(0 27.214)">
      <g id="Group_32" data-name="Group 32" transform="translate(0 0)">
        <path id="Path_94" data-name="Path 94" d="M42.133,47.292H45A20.059,20.059,0,0,0,4.93,45.876l-2.9-2.9L0,45l6.165,6.165L12.329,45,10.3,42.973,7.829,45.44a17.2,17.2,0,0,1,34.3,1.852Z" transform="translate(0 -27.214)"/>
        <path id="Path_95" data-name="Path 95" d="M222.336,440.044a20.453,20.453,0,0,0,3.036.536l.287-2.854a17.335,17.335,0,0,1-2.6-.46Z" transform="translate(-202.414 -400.525)"/>
        <path id="Path_96" data-name="Path 96" d="M74.326,325.138l-2.646,1.1a20.233,20.233,0,0,0,1.4,2.745l2.446-1.5A17.426,17.426,0,0,1,74.326,325.138Z" transform="translate(-65.257 -298.444)"/>
        <path id="Path_97" data-name="Path 97" d="M159.28,416.352A20.065,20.065,0,0,0,162,417.786l1.137-2.632a17.148,17.148,0,0,1-2.338-1.231Z" transform="translate(-145.008 -379.272)"/>
        <path id="Path_98" data-name="Path 98" d="M109.692,375.346,107.5,377.2a20.17,20.17,0,0,0,2.165,2.193l1.881-2.165A17.191,17.191,0,0,1,109.692,375.346Z" transform="translate(-97.871 -344.153)"/>
        <path id="Path_99" data-name="Path 99" d="M397.472,383.33l1.788,2.235a20.04,20.04,0,0,0,2.257-2.1l-2.113-1.943A17.44,17.44,0,0,1,397.472,383.33Z" transform="translate(-361.858 -349.775)"/>
        <path id="Path_100" data-name="Path 100" d="M288.88,439.514l.156,2.867a20.054,20.054,0,0,0,3.059-.406l-.6-2.806A17.2,17.2,0,0,1,288.88,439.514Z" transform="translate(-262.996 -402.258)"/>
        <path id="Path_101" data-name="Path 101" d="M437.376,334.974l2.38,1.6a20.141,20.141,0,0,0,1.518-2.684l-2.6-1.216A17.142,17.142,0,0,1,437.376,334.974Z" transform="translate(-398.186 -305.304)"/>
        <path id="Path_102" data-name="Path 102" d="M346.4,419.324,347.422,422a19.994,19.994,0,0,0,2.788-1.32l-1.424-2.489A17.287,17.287,0,0,1,346.4,419.324Z" transform="translate(-315.362 -383.162)"/>
      </g>
    </g>
  </g>
</svg>
