<svg xmlns="http://www.w3.org/2000/svg" width="45.001" height="45" viewBox="0 0 45.001 45">
  <g id="sanita" transform="translate(0 -0.004)">
    <path id="Path_86" data-name="Path 86" d="M199.258,82.165v-2.9h2.9V74.907h-2.9V72H194.9v2.9H192v4.355h2.9v2.9Zm-5.806-4.355V76.359h2.9v-2.9h1.452v2.9h2.9V77.81h-2.9v2.9h-1.452v-2.9Zm0,0" transform="translate(-174.581 -65.468)"/>
    <path id="Path_87" data-name="Path 87" d="M86.92,28.006l.608.4,2.378-3.647-.607-.4a10.887,10.887,0,1,1,11.887,0l-.607.4,2.378,3.647.608-.4a15.242,15.242,0,1,0-16.645,0ZM95.242,1.456a13.784,13.784,0,0,1,8.127,24.923l-.793-1.217a12.339,12.339,0,1,0-14.667,0l-.793,1.217A13.784,13.784,0,0,1,95.242,1.456Zm0,0" transform="translate(-72.742)"/>
    <path id="Path_88" data-name="Path 88" d="M43.548,211.353H37.742A1.453,1.453,0,0,0,36.29,212.8v1.452H32.814a2.167,2.167,0,0,1-1.208-.366l-5.5-3.664a4.219,4.219,0,0,0,.744-2.4,4.271,4.271,0,0,0-.449-1.9L22.5,198.117l-3.906,7.812a4.268,4.268,0,0,0-.449,1.9c0,.062.014.123.016.186a2.928,2.928,0,0,0-.742,1.936v.208a2.95,2.95,0,0,0,1.315,2.458l4.8,3.2-.7.7a2.16,2.16,0,0,1-1.54.638H14.9l-1.136-1.705a12.22,12.22,0,0,1-1.9-4.8,2.627,2.627,0,0,0-2.6-2.2h-.1a2.635,2.635,0,0,0-2.534,3.36l.608,2.129-2.5-2.506a2.758,2.758,0,0,0-1.981-.806A2.779,2.779,0,0,0,.8,215.359L6.539,221.1a5.063,5.063,0,0,0,2.6,1.389l9.172,1.834a5.093,5.093,0,0,0,1,.1h17.19a1.447,1.447,0,0,0,1.25.726h5.806A1.453,1.453,0,0,0,45,223.692V212.8a1.454,1.454,0,0,0-1.452-1.452ZM22.5,201.363l2.608,5.216a2.814,2.814,0,0,1,.3,1.251,2.768,2.768,0,0,1-.51,1.585l-2.881-1.92a2.893,2.893,0,0,0-2.3-.415,2.753,2.753,0,0,1,.181-.5ZM8.03,211.412a1.185,1.185,0,0,1,1.138-1.51h.1a1.18,1.18,0,0,1,1.168.989,13.671,13.671,0,0,0,2.123,5.369l.6.9h-1.8a2.165,2.165,0,0,1-1.54-.638l-.469-.469ZM18.591,222.9l-9.171-1.834a3.614,3.614,0,0,1-1.854-.992l-5.737-5.737a1.344,1.344,0,0,1,0-1.871,1.376,1.376,0,0,1,1.877,0L8.8,217.549a3.612,3.612,0,0,0,2.567,1.062H21.3a3.609,3.609,0,0,0,2.567-1.063l.5-.5,1.08,3.241,1.377-.459-1.53-4.591L19.54,211.41a1.5,1.5,0,0,1-.669-1.251v-.208a1.5,1.5,0,0,1,2.335-1.25l9.594,6.4a3.625,3.625,0,0,0,2.014.61H36.29v7.258H19.3a3.611,3.611,0,0,1-.712-.071Zm23.506.8v-2.9H40.645v2.9h-2.9V212.8h2.9v6.532H42.1V212.8h1.452v10.887Zm0,0" transform="translate(0 -180.139)"/>
  </g>
</svg>
