<svg xmlns="http://www.w3.org/2000/svg" width="25" height="25" viewBox="0 0 25 25">
  <g id="Layer_2" data-name="Layer 2" transform="translate(-2 -2)">
    <g id="icons_Q2" data-name="icons Q2" transform="translate(2 2)">
      <path id="Path_29" data-name="Path 29" d="M14.5,24.727A10.227,10.227,0,1,1,24.727,14.5,10.227,10.227,0,0,1,14.5,24.727M14.5,27a12.443,12.443,0,1,0-8.856-3.644A12.5,12.5,0,0,0,14.5,27Z" transform="translate(-2 -2)" fill="#fff"/>
      <path id="Path_30" data-name="Path 30" d="M19.682,23.073l-3.75-3.75a1.08,1.08,0,0,0-1.7.114,1.193,1.193,0,0,0,.114,1.534l4.545,4.489a1.08,1.08,0,0,0,1.591,0l4.545-4.489a1.193,1.193,0,0,0,.114-1.534,1.08,1.08,0,0,0-1.7-.114Z" transform="translate(-7.182 -9.323)" fill="#fff"/>
    </g>
  </g>
</svg>
